<svg xmlns="http://www.w3.org/2000/svg" viewBox="0 0 225.13 174.98"><defs><style>.cls-1{fill:#fff;}.cls-2{fill:#edc530;}.cls-3{fill:#9fc6cc;}.cls-4{fill:#6db6b3;}</style></defs><title>tempered</title><g id="Layer_2" data-name="Layer 2"><g id="Capa_1" data-name="Capa 1"><circle class="cls-1" cx="102.19" cy="94.22" r="70.83"/><path class="cls-2" d="M115.32,89a28.14,28.14,0,0,1,47.62,17.64,16.52,16.52,0,0,1,8.62,8c.29,0,.58,0,.88,0a22.07,22.07,0,0,1,4.6.49A49,49,0,0,0,88.49,73.17,20.58,20.58,0,0,1,115.32,89Z"/><path class="cls-2" d="M144.92,39C144.58,21.73,132.69-3.62,132.69.43c0-4.06-11.89,21.3-12.23,38.54h24.46Z"/><path class="cls-2" d="M178.7,64.45c12.16-12.22,22.14-38.39,19.22-35.57,2.92-2.82-23.58,6.25-36.21,18l8.5,8.79Z"/><path class="cls-2" d="M186.22,96l-.71,12.21c17.23.66,43.23-9.74,39.18-10,4,.24-20.57-13.1-37.76-14.44Z"/><path class="cls-2" d="M84.12,65.64l8.57-8.73,8.57-8.73c-12.54-11.84-39-21.12-36.07-18.28C62.29,27.07,72.06,53.32,84.12,65.64Z"/><path class="cls-3" d="M59.52,105.61a28.21,28.21,0,0,1,4.22.35,28.14,28.14,0,0,1,54.38-1.4,15.71,15.71,0,0,1,27.21,5.54,16.39,16.39,0,0,1,17.62-3.51A28.14,28.14,0,0,0,115.32,89a20.58,20.58,0,0,0-35.14-10.5,30.21,30.21,0,0,0-50.48,7.39A22,22,0,1,0,22,128.4c.3,0,.58,0,.88,0a16.52,16.52,0,0,0,8.62,8c-.08-.85-.12-1.71-.12-2.57A28.16,28.16,0,0,1,59.52,105.61Z"/><path class="cls-4" d="M177,115a22.07,22.07,0,0,0-4.6-.49c-.3,0-.58,0-.88,0a16.52,16.52,0,0,0-8.62-8,16.39,16.39,0,0,0-17.62,3.51,15.71,15.71,0,0,0-27.21-5.54A28.14,28.14,0,0,0,63.74,106a28,28,0,0,0-32.38,27.81c0,.87,0,1.73.12,2.57A28.14,28.14,0,0,0,79.1,154a20.58,20.58,0,0,0,35.14,10.5,30.21,30.21,0,0,0,50.48-7.39A22,22,0,1,0,177,115Z"/></g></g></svg>