<?xml version="1.0" encoding="utf-8"?>
<!-- Generator: Adobe Illustrator 21.1.0, SVG Export Plug-In . SVG Version: 6.00 Build 0)  -->
<svg version="1.1" id="Layer_1" xmlns="http://www.w3.org/2000/svg" xmlns:xlink="http://www.w3.org/1999/xlink" x="0px" y="0px"
	 viewBox="0 0 108 108" style="enable-background:new 0 0 108 108;" xml:space="preserve">
<style type="text/css">
	.st0{display:none;fill:#FFFFFF;}
	.st1{fill:#FFFFFF;}
</style>
<rect y="0.4" class="st0" width="108" height="108"/>
<path class="st1" d="M51.9,53.5L64,65.6c1.7,1.7,4.5,1.8,6.1,0.2l0.2-0.2c1.6-1.6,1.6-4.4-0.2-6.1l-12-12.2c0.6-1.1,1-2.2,1.2-3.3
	h16v-7H59.4c-0.3-1.1-0.7-2.2-1.2-3.3l12.1-12.1c1.7-1.7,1.8-4.5,0.2-6.1l-0.2-0.2c-1.6-1.6-4.4-1.6-6.1,0.2l-12.3,12
	c-1.1-0.6-2.2-1-3.3-1.2v-16l5.1-5.1c1.1-1.1,1.1-2.9,0-4s-2.9-1.1-4,0l-4.5,4.5l-4.5-4.5c-0.5-0.5-1.3-0.8-2-0.8
	c-0.8,0-1.5,0.3-2,0.8c-1.1,1.1-1.1,2.9,0,4l5.1,5.1v16c-1.1,0.3-2.2,0.7-3.3,1.2L26.2,15.4c-1.7-1.7-4.5-1.8-6.1-0.2l-0.2,0.2
	c-1.6,1.6-1.6,4.4,0.2,6.1l12.1,12.1c-0.6,1.1-1,2.2-1.2,3.3L15,37l-5.1-5.1c-1.1-1.1-2.9-1.1-4,0c-0.5,0.5-0.8,1.3-0.8,2
	c0,0.8,0.3,1.5,0.8,2l4.5,4.5L5.9,45c-1.1,1.1-1.1,2.9,0,4s2.9,1.1,4,0l5.1-5h15.9c0.3,1.1,0.7,2.2,1.2,3.3L20,59.4
	c-1.7,1.7-1.8,4.5-0.2,6.1l0.2,0.2c1.6,1.6,4.4,1.6,6.1-0.2l12.1-12.1c1.1,0.6,2.2,1,3.3,1.2v15.9l-5.1,5.1c-1.1,1.1-1.1,2.9,0,4
	s2.9,1.1,4,0l4.5-4.5l4.5,4.5c0.5,0.5,1.3,0.8,2,0.8c0.8,0,1.5-0.3,2-0.8c1.1-1.1,1.1-2.9,0-4l-5.1-5.1V54.6
	C49.8,54.5,50.9,54,51.9,53.5z M39.1,46.5c-3.3-3.3-3.3-8.7,0-12s8.7-3.3,12,0s3.3,8.7,0,12S42.4,49.8,39.1,46.5z"/>
<path class="st1" d="M93.1,73.9V21.8c0-4.3-3.8-7.8-8.1-7.8s-8,3.5-8,7.8v52.1c-6,2.9-9.9,9-9.9,16.1c0,9.9,8,17.9,17.9,17.9
	s17.9-8,17.9-17.9C102.9,83,99.1,76.8,93.1,73.9z M85,104.6c-7.8,0-14.1-6.3-14.1-14.1c0-5.8,3.5-10.8,8.5-12.9V22.9
	c0-3.1,2.3-5.5,5.2-5.5h0.8c2.9,0,5.2,2.5,5.2,5.5v54.8c5,2.2,8.5,7.1,8.5,12.9C99.1,98.3,92.8,104.6,85,104.6z"/>
<circle class="st1" cx="85" cy="90.6" r="11.4"/>
<path class="st1" d="M89.5,77.2v-6.4h-9v6.4c1.7-0.5,2.9-0.8,4.5-0.8S88,76.7,89.5,77.2z"/>
</svg>
