<svg xmlns="http://www.w3.org/2000/svg" viewBox="0 0 150.68 186.45"><defs><style>.cls-1{fill:#fff;}.cls-2{fill:#2d2620;}.cls-3{fill:#6db6b3;}.cls-4{fill:#9dcbc6;}</style></defs><title>cold</title><g id="Layer_2" data-name="Layer 2"><g id="Capa_1" data-name="Capa 1"><circle class="cls-1" cx="77.79" cy="102.37" r="70.83"/><path class="cls-2" d="M74.32,118.8,70.5,163.58a3.4,3.4,0,0,0-1.56,2.58l-1,11.26c-.19,2.21-2.25,2.27-3.13,2.19-2.83-.24-3.08-.73-2.91-2.71a3.41,3.41,0,1,0-6.8-.58c-.29,3.45.5,9.35,9.13,10.09,4.83.41,10-2.35,10.51-8.41l1-11.26a3.41,3.41,0,0,0-1.29-3l3.8-44.6C77,119,75.64,118.89,74.32,118.8Z"/><path class="cls-2" d="M84.24,60.36C84.26,48.91,82,47.53,82,47.53c-1.92.1-3.29,9.26-3.67,12.13.81-.08,1.63-.16,2.45-.22C82,59.73,83.12,60,84.24,60.36Z"/><path class="cls-3" d="M80.82,59.43c-.83.06-1.64.14-2.45.22C19.26,65.56,0,117.29,0,117.29c19.37-9.48,28,.33,28,.33C51.11,69.27,80.82,59.43,80.82,59.43Z"/><path class="cls-3" d="M84.24,60.36c-1.13-.32-2.26-.64-3.42-.93,35,29.38,42.19,66.29,42.19,66.29s10.19-8.21,27.67,4.42C150.68,130.14,140.57,76.56,84.24,60.36Z"/><path class="cls-4" d="M80.82,59.43c18.45,52.1,12.71,63.77,12.71,63.77s9.92-9.88,29.48,2.51C123,125.72,115.85,88.82,80.82,59.43Z"/><path class="cls-4" d="M80.82,59.43S51.11,69.27,28,117.62c21.38-8.9,29.48,2.51,29.48,2.51C64.48,93.82,80.82,59.43,80.82,59.43Z"/><path class="cls-3" d="M80.82,59.43S64.48,93.82,57.5,120.13c4.52-1.34,10.65-1.74,16.82-1.33,1.31.09,2.63.21,3.93.36a49.58,49.58,0,0,1,15.28,4S99.27,111.53,80.82,59.43Z"/><path class="cls-4" d="M94,17.46c-2.23,2.59-1.45,6.11,1.63,8.07a5.69,5.69,0,0,0,8.46-3c1.24-3.61,4.16-14.34,4.16-14.34S96.22,14.86,94,17.46Z"/><path class="cls-4" d="M58.22,33.29c-1.71,2-1.11,4.67,1.25,6.17a4.35,4.35,0,0,0,6.47-2.32c.94-2.76,3.18-11,3.18-11S59.93,31.3,58.22,33.29Z"/><path class="cls-4" d="M18,55.29c-2.81,3.26-1.82,7.68,2.05,10.15A7.15,7.15,0,0,0,30.7,61.62c1.55-4.53,5.23-18,5.23-18S20.82,52,18,55.29Z"/><path class="cls-4" d="M115.31,46.56a3.67,3.67,0,0,0,5.46-2c.8-2.33,2.69-9.26,2.69-9.26s-7.76,4.33-9.2,6S113.32,45.29,115.31,46.56Z"/><path class="cls-4" d="M135.76,77.21a5.69,5.69,0,0,0,8.46-3c1.24-3.61,4.16-14.34,4.16-14.34s-12,6.71-14.25,9.3S132.68,75.24,135.76,77.21Z"/><path class="cls-4" d="M41.5,17.38a5.69,5.69,0,0,0,8.46-3C51.19,10.73,54.12,0,54.12,0s-12,6.71-14.25,9.3S38.42,15.41,41.5,17.38Z"/></g></g></svg>