<?xml version="1.0" encoding="utf-8"?>
<!-- Generator: Adobe Illustrator 21.1.0, SVG Export Plug-In . SVG Version: 6.00 Build 0)  -->
<svg version="1.1" id="Layer_1" xmlns="http://www.w3.org/2000/svg" xmlns:xlink="http://www.w3.org/1999/xlink" x="0px" y="0px"
	 viewBox="0 0 108 108" style="enable-background:new 0 0 108 108;" xml:space="preserve">
<style type="text/css">
	.st0{display:none;}
	.st1{fill:#FFFFFF;}
</style>
<rect x="0.3" y="0.4" class="st0" width="108" height="108"/>
<g id="termometer">
	<path class="st1" d="M93.1,73.9V21.8c0-4.3-3.8-7.8-8.1-7.8s-8,3.5-8,7.8v52.1c-6,2.9-9.9,9-9.9,16.1c0,9.9,8,17.9,17.9,17.9
		s17.9-8,17.9-17.9C102.9,83,99.1,76.8,93.1,73.9z M85,104.6c-7.8,0-14.1-6.3-14.1-14.1c0-5.8,3.5-10.8,8.5-12.9V22.9
		c0-3.1,2.3-5.5,5.2-5.5h0.8c2.9,0,5.2,2.5,5.2,5.5v54.8c5,2.2,8.5,7.1,8.5,12.9C99.1,98.3,92.8,104.6,85,104.6z"/>
	<circle class="st1" cx="85" cy="90.6" r="11.4"/>
	<path class="st1" d="M89.5,77.2v-6.4h-9v6.4c1.7-0.5,2.9-0.8,4.5-0.8S88,76.7,89.5,77.2z"/>
	<rect x="80.5" y="72" class="st1" width="9" height="0.3"/>
</g>
<path class="st1" d="M29.6,55.4L29.6,55.4c-0.6,0-1.1-0.5-1.1-1.1v-2.9c0-0.6,0.5-1.1,1.1-1.1h0c0.6,0,1.1,0.5,1.1,1.1v2.9
	C30.7,54.9,30.2,55.4,29.6,55.4z"/>
<g id="Coludy">
	<path class="st1" d="M58.4,24.8H22.5c-6.6,0-12,5.4-12,12l0,0c0,6.6,5.4,12,12,12h35.8c6.6,0,12-5.4,12-12l0,0
		C70.4,30.2,65,24.8,58.4,24.8z"/>
	<path class="st1" d="M23.9,48.8H40c6.6,0,12-5.4,12-12v-4.7c0-6.6-5.4-12-12-12H23.9c-7.9,0-14.4,6.4-14.4,14.3l0,0
		C9.5,42.3,16,48.8,23.9,48.8z"/>
	<path class="st1" d="M44.9,45.9l-9.6,2.4c-6.1,1.5-12.4-2.2-13.9-8.4l-3.5-14C16,18.1,20.8,10.1,28.6,8.2l3.5-0.9
		c7.8-1.9,15.8,2.9,17.7,10.7l3.5,14C54.8,38.1,51,44.3,44.9,45.9z"/>
	<circle class="st1" cx="50.1" cy="25.8" r="13.2"/>
</g>
<g id="Rain">
	<path class="st1" d="M35,57.2L35,57.2c-0.6,0-1.1-0.5-1.1-1.1v-2.9c0-0.6,0.5-1.1,1.1-1.1h0c0.6,0,1.1,0.5,1.1,1.1v2.9
		C36.2,56.7,35.7,57.2,35,57.2z"/>
	<path class="st1" d="M31.4,64.3L31.4,64.3c-0.6,0-1.1-0.5-1.1-1.1v-2.9c0-0.6,0.5-1.1,1.1-1.1h0c0.6,0,1.1,0.5,1.1,1.1v2.9
		C32.6,63.8,32.1,64.3,31.4,64.3z"/>
	<path class="st1" d="M31.4,64.3L31.4,64.3c-0.6,0-1.1-0.5-1.1-1.1v-2.9c0-0.6,0.5-1.1,1.1-1.1h0c0.6,0,1.1,0.5,1.1,1.1v2.9
		C32.6,63.8,32.1,64.3,31.4,64.3z"/>
	<path class="st1" d="M46.7,58.2L46.7,58.2c-0.6,0-1.1-0.5-1.1-1.1v-2.9c0-0.6,0.5-1.1,1.1-1.1h0c0.6,0,1.1,0.5,1.1,1.1v2.9
		C47.9,57.7,47.4,58.2,46.7,58.2z"/>
	<path class="st1" d="M39.1,62.5L39.1,62.5c-0.6,0-1.1-0.5-1.1-1.1v-2.9c0-0.6,0.5-1.1,1.1-1.1h0c0.6,0,1.1,0.5,1.1,1.1v2.9
		C40.2,62,39.7,62.5,39.1,62.5z"/>
	<path class="st1" d="M40.6,55.4L40.6,55.4c-0.6,0-1.1-0.5-1.1-1.1v-2.9c0-0.6,0.5-1.1,1.1-1.1h0c0.6,0,1.1,0.5,1.1,1.1v2.9
		C41.8,54.9,41.2,55.4,40.6,55.4z"/>
	<path class="st1" d="M56.2,56.6L56.2,56.6c-0.6,0-1.1-0.5-1.1-1.1v-2.9c0-0.6,0.5-1.1,1.1-1.1h0c0.6,0,1.1,0.5,1.1,1.1v2.9
		C57.4,56.1,56.9,56.6,56.2,56.6z"/>
	<path class="st1" d="M51.5,55.4L51.5,55.4c-0.6,0-1.1-0.5-1.1-1.1v-2.9c0-0.6,0.5-1.1,1.1-1.1h0c0.6,0,1.1,0.5,1.1,1.1v2.9
		C52.6,54.9,52.1,55.4,51.5,55.4z"/>
	<path class="st1" d="M21.8,54.6L21.8,54.6c-0.6,0-1.1-0.5-1.1-1.1v-2.9c0-0.6,0.5-1.1,1.1-1.1h0c0.6,0,1.1,0.5,1.1,1.1v2.9
		C22.9,54.1,22.4,54.6,21.8,54.6z"/>
	<path class="st1" d="M25.4,59.9L25.4,59.9c-0.6,0-1.1-0.5-1.1-1.1v-2.9c0-0.6,0.5-1.1,1.1-1.1h0c0.6,0,1.1,0.5,1.1,1.1v2.9
		C26.5,59.4,26,59.9,25.4,59.9z"/>
	<path class="st1" d="M21.8,63.5L21.8,63.5c-0.6,0-1.1-0.5-1.1-1.1v-2.9c0-0.6,0.5-1.1,1.1-1.1h0c0.6,0,1.1,0.5,1.1,1.1v2.9
		C22.9,63,22.4,63.5,21.8,63.5z"/>
	<path class="st1" d="M44.5,64.7L44.5,64.7c-0.6,0-1.1-0.5-1.1-1.1v-2.9c0-0.6,0.5-1.1,1.1-1.1h0c0.6,0,1.1,0.5,1.1,1.1v2.9
		C45.6,64.2,45.1,64.7,44.5,64.7z"/>
	<path class="st1" d="M52.6,63.5L52.6,63.5c-0.6,0-1.1-0.5-1.1-1.1v-2.9c0-0.6,0.5-1.1,1.1-1.1l0,0c0.6,0,1.1,0.5,1.1,1.1v2.9
		C53.8,63,53.2,63.5,52.6,63.5z"/>
	<path class="st1" d="M35.5,68.7L35.5,68.7c-0.6,0-1.1-0.5-1.1-1.1v-2.9c0-0.6,0.5-1.1,1.1-1.1l0,0c0.6,0,1.1,0.5,1.1,1.1v2.9
		C36.7,68.2,36.2,68.7,35.5,68.7z"/>
	<path class="st1" d="M26.5,67.3L26.5,67.3c-0.6,0-1.1-0.5-1.1-1.1v-2.9c0-0.6,0.5-1.1,1.1-1.1h0c0.6,0,1.1,0.5,1.1,1.1v2.9
		C27.7,66.7,27.1,67.3,26.5,67.3z"/>
	<path class="st1" d="M30.1,72.7L30.1,72.7c-0.6,0-1.1-0.5-1.1-1.1v-2.9c0-0.6,0.5-1.1,1.1-1.1h0c0.6,0,1.1,0.5,1.1,1.1v2.9
		C31.2,72.2,30.7,72.7,30.1,72.7z"/>
	<path class="st1" d="M41.2,70.1L41.2,70.1c-0.6,0-1.1-0.5-1.1-1.1V66c0-0.6,0.5-1.1,1.1-1.1h0c0.6,0,1.1,0.5,1.1,1.1v2.9
		C42.4,69.6,41.9,70.1,41.2,70.1z"/>
	<path class="st1" d="M36.7,76.7L36.7,76.7c-0.6,0-1.1-0.5-1.1-1.1v-2.9c0-0.6,0.5-1.1,1.1-1.1h0c0.6,0,1.1,0.5,1.1,1.1v2.9
		C37.8,76.2,37.3,76.7,36.7,76.7z"/>
	<path class="st1" d="M48.2,70.3L48.2,70.3c-0.6,0-1.1-0.5-1.1-1.1v-2.9c0-0.6,0.5-1.1,1.1-1.1h0c0.6,0,1.1,0.5,1.1,1.1v2.9
		C49.3,69.8,48.8,70.3,48.2,70.3z"/>
	<path class="st1" d="M64.4,54L64.4,54c-0.6,0-1.1-0.5-1.1-1.1V50c0-0.6,0.5-1.1,1.1-1.1l0,0c0.6,0,1.1,0.5,1.1,1.1l0,2.9
		C65.6,53.5,65,54,64.4,54z"/>
	<path class="st1" d="M64.1,62.5L64.1,62.5c-0.6,0-1.1-0.5-1.1-1.1v-2.9c0-0.6,0.5-1.1,1.1-1.1l0,0c0.6,0,1.1,0.5,1.1,1.1v2.9
		C65.3,62,64.7,62.5,64.1,62.5z"/>
	<path class="st1" d="M59.4,61.3L59.4,61.3c-0.6,0-1.1-0.5-1.1-1.1v-2.9c0-0.6,0.5-1.1,1.1-1.1h0c0.6,0,1.1,0.5,1.1,1.1v2.9
		C60.5,60.8,60,61.3,59.4,61.3z"/>
	<path class="st1" d="M60.5,69.5L60.5,69.5c-0.6,0-1.1-0.5-1.1-1.1v-2.9c0-0.6,0.5-1.1,1.1-1.1l0,0c0.6,0,1.1,0.5,1.1,1.1v2.9
		C61.6,69,61.1,69.5,60.5,69.5z"/>
	<path class="st1" d="M53.1,72.1L53.1,72.1c-0.6,0-1.1-0.5-1.1-1.1V68c0-0.6,0.5-1.1,1.1-1.1h0c0.6,0,1.1,0.5,1.1,1.1v2.9
		C54.3,71.6,53.7,72.1,53.1,72.1z"/>
	<path class="st1" d="M17.3,57.2L17.3,57.2c-0.6,0-1.1-0.5-1.1-1.1v-2.9c0-0.6,0.5-1.1,1.1-1.1h0c0.6,0,1.1,0.5,1.1,1.1V56
		C18.4,56.6,17.9,57.2,17.3,57.2z"/>
	<path class="st1" d="M13.9,51.9L13.9,51.9c-0.6,0-1.1-0.5-1.1-1.1v-2.9c0-0.6,0.5-1.1,1.1-1.1h0c0.6,0,1.1,0.5,1.1,1.1v2.9
		C15,51.4,14.5,51.9,13.9,51.9z"/>
	<path class="st1" d="M15.4,63.4L15.4,63.4c-0.6,0-1.1-0.5-1.1-1.1v-2.9c0-0.6,0.5-1.1,1.1-1.1h0c0.6,0,1.1,0.5,1.1,1.1v2.9
		C16.5,62.9,16,63.4,15.4,63.4z"/>
</g>
</svg>
