<?xml version="1.0" encoding="utf-8"?>
<!-- Generator: Adobe Illustrator 21.1.0, SVG Export Plug-In . SVG Version: 6.00 Build 0)  -->
<svg version="1.1" id="Layer_1" xmlns="http://www.w3.org/2000/svg" xmlns:xlink="http://www.w3.org/1999/xlink" x="0px" y="0px"
	 viewBox="0 0 108 108" style="enable-background:new 0 0 108 108;" xml:space="preserve">
<style type="text/css">
	.st0{display:none;}
	.st1{display:inline;fill:#FFFFFF;}
	.st2{fill:#FFFFFF;}
</style>
<rect x="0.3" y="0.4" class="st0" width="108" height="108"/>
<g id="termometer" class="st0">
	<path class="st1" d="M93.1,73.9V21.8c0-4.3-3.8-7.8-8.1-7.8s-8,3.5-8,7.8v52.1c-6,2.9-9.9,9-9.9,16.1c0,9.9,8,17.9,17.9,17.9
		s17.9-8,17.9-17.9C102.9,83,99.1,76.8,93.1,73.9z M85,104.6c-7.8,0-14.1-6.3-14.1-14.1c0-5.8,3.5-10.8,8.5-12.9V22.9
		c0-3.1,2.3-5.5,5.2-5.5h0.8c2.9,0,5.2,2.5,5.2,5.5v54.8c5,2.2,8.5,7.1,8.5,12.9C99.1,98.3,92.8,104.6,85,104.6z"/>
	<circle class="st1" cx="85" cy="90.6" r="11.4"/>
	<path class="st1" d="M89.5,77.2v-6.4h-9v6.4c1.7-0.5,2.9-0.8,4.5-0.8S88,76.7,89.5,77.2z"/>
	<rect x="80.5" y="72" class="st1" width="9" height="0.3"/>
</g>
<g>
	<g id="Coludy">
		<path class="st2" d="M74.8,30.5H38.3c-6.7,0-12.2,5.5-12.2,12.2l0,0c0,6.7,5.5,12.2,12.2,12.2h36.4c6.7,0,12.2-5.5,12.2-12.2l0,0
			C87,36,81.5,30.5,74.8,30.5z"/>
		<path class="st2" d="M39.7,54.9h16.4c6.7,0,12.2-5.5,12.2-12.2v-4.8c0-6.7-5.5-12.2-12.2-12.2H39.7c-8,0-14.6,6.5-14.6,14.5l0,0
			C25.1,48.3,31.7,54.9,39.7,54.9z"/>
		<path class="st2" d="M61.1,52l-9.8,2.4c-6.2,1.5-12.6-2.2-14.1-8.5l-3.6-14.2c-1.9-7.9,2.9-16.1,10.9-18l3.6-0.9
			c7.9-1.9,16.1,2.9,18,10.9l3.6,14.2C71.1,44,67.3,50.3,61.1,52z"/>
		<circle class="st2" cx="66.3" cy="31.5" r="13.4"/>
	</g>
	<g id="Rain">
		<path class="st2" d="M51.7,66L51.7,66c-0.6,0-1.1-0.5-1.1-1.1v-2.9c0-0.6,0.5-1.1,1.1-1.1l0,0c0.6,0,1.1,0.5,1.1,1.1v2.9
			C52.9,65.5,52.4,66,51.7,66z"/>
		<path class="st2" d="M48,73.2L48,73.2c-0.6,0-1.1-0.5-1.1-1.1v-2.9c0-0.6,0.5-1.1,1.1-1.1l0,0c0.6,0,1.1,0.5,1.1,1.1v2.9
			C49.3,72.7,48.8,73.2,48,73.2z"/>
		<path class="st2" d="M48,73.2L48,73.2c-0.6,0-1.1-0.5-1.1-1.1v-2.9c0-0.6,0.5-1.1,1.1-1.1l0,0c0.6,0,1.1,0.5,1.1,1.1v2.9
			C49.3,72.7,48.8,73.2,48,73.2z"/>
		<path class="st2" d="M63.6,67L63.6,67c-0.6,0-1.1-0.5-1.1-1.1v-2.9c0-0.6,0.5-1.1,1.1-1.1l0,0c0.6,0,1.1,0.5,1.1,1.1v2.9
			C64.8,66.5,64.3,67,63.6,67z"/>
		<path class="st2" d="M55.9,71.3L55.9,71.3c-0.6,0-1.1-0.5-1.1-1.1v-2.9c0-0.6,0.5-1.1,1.1-1.1l0,0c0.6,0,1.1,0.5,1.1,1.1v2.9
			C57,70.8,56.5,71.3,55.9,71.3z"/>
		<path class="st2" d="M57.4,64.1L57.4,64.1c-0.6,0-1.1-0.5-1.1-1.1v-2.9c0-0.6,0.5-1.1,1.1-1.1l0,0c0.6,0,1.1,0.5,1.1,1.1V63
			C58.6,63.6,58,64.1,57.4,64.1z"/>
		<path class="st2" d="M73.3,65.4L73.3,65.4c-0.6,0-1.1-0.5-1.1-1.1v-2.9c0-0.6,0.5-1.1,1.1-1.1l0,0c0.6,0,1.1,0.5,1.1,1.1v2.9
			C74.5,64.8,74,65.4,73.3,65.4z"/>
		<path class="st2" d="M68.5,64.1L68.5,64.1c-0.6,0-1.1-0.5-1.1-1.1v-2.9c0-0.6,0.5-1.1,1.1-1.1l0,0c0.6,0,1.1,0.5,1.1,1.1V63
			C69.6,63.6,69.1,64.1,68.5,64.1z"/>
		<path class="st2" d="M38.3,63.3L38.3,63.3c-0.6,0-1.1-0.5-1.1-1.1v-2.9c0-0.6,0.5-1.1,1.1-1.1l0,0c0.6,0,1.1,0.5,1.1,1.1v2.9
			C39.4,62.8,38.9,63.3,38.3,63.3z"/>
		<path class="st2" d="M41.9,68.7L41.9,68.7c-0.6,0-1.1-0.5-1.1-1.1v-2.9c0-0.6,0.5-1.1,1.1-1.1l0,0c0.6,0,1.1,0.5,1.1,1.1v2.9
			C43.1,68.2,42.6,68.7,41.9,68.7z"/>
		<path class="st2" d="M38.3,72.4L38.3,72.4c-0.6,0-1.1-0.5-1.1-1.1v-2.9c0-0.6,0.5-1.1,1.1-1.1l0,0c0.6,0,1.1,0.5,1.1,1.1v2.9
			C39.4,71.9,38.9,72.4,38.3,72.4z"/>
		<path class="st2" d="M61.4,73.6L61.4,73.6c-0.6,0-1.1-0.5-1.1-1.1v-2.9c0-0.6,0.5-1.1,1.1-1.1l0,0c0.6,0,1.1,0.5,1.1,1.1v2.9
			C62.5,73.1,62,73.6,61.4,73.6z"/>
		<path class="st2" d="M69.6,72.4L69.6,72.4c-0.6,0-1.1-0.5-1.1-1.1v-2.9c0-0.6,0.5-1.1,1.1-1.1l0,0c0.6,0,1.1,0.5,1.1,1.1v2.9
			C70.8,71.9,70.2,72.4,69.6,72.4z"/>
		<path class="st2" d="M52.2,77.7L52.2,77.7c-0.6,0-1.1-0.5-1.1-1.1v-2.9c0-0.6,0.5-1.1,1.1-1.1l0,0c0.6,0,1.1,0.5,1.1,1.1v2.9
			C53.4,77.1,52.9,77.7,52.2,77.7z"/>
		<path class="st2" d="M43.1,76.2L43.1,76.2c-0.6,0-1.1-0.5-1.1-1.1v-2.9c0-0.6,0.5-1.1,1.1-1.1l0,0c0.6,0,1.1,0.5,1.1,1.1v2.9
			C44.3,75.6,43.7,76.2,43.1,76.2z"/>
		<path class="st2" d="M46.7,81.7L46.7,81.7c-0.6,0-1.1-0.5-1.1-1.1v-2.9c0-0.6,0.5-1.1,1.1-1.1l0,0c0.6,0,1.1,0.5,1.1,1.1v2.9
			C47.8,81.2,47.3,81.7,46.7,81.7z"/>
		<path class="st2" d="M58,79.1L58,79.1c-0.6,0-1.1-0.5-1.1-1.1v-3c0-0.6,0.5-1.1,1.1-1.1l0,0c0.6,0,1.1,0.5,1.1,1.1v2.9
			C59.2,78.6,58.7,79.1,58,79.1z"/>
		<path class="st2" d="M53.4,85.8L53.4,85.8c-0.6,0-1.1-0.5-1.1-1.1v-2.9c0-0.6,0.5-1.1,1.1-1.1l0,0c0.6,0,1.1,0.5,1.1,1.1v2.9
			C54.6,85.3,54,85.8,53.4,85.8z"/>
		<path class="st2" d="M65.1,79.3L65.1,79.3c-0.6,0-1.1-0.5-1.1-1.1v-2.9c0-0.6,0.5-1.1,1.1-1.1l0,0c0.6,0,1.1,0.5,1.1,1.1v2.9
			C66.2,78.8,65.7,79.3,65.1,79.3z"/>
		<path class="st2" d="M81.6,62.7L81.6,62.7c-0.6,0-1.1-0.5-1.1-1.1v-2.9c0-0.6,0.5-1.1,1.1-1.1l0,0c0.6,0,1.1,0.5,1.1,1.1v2.9
			C82.8,62.2,82.2,62.7,81.6,62.7z"/>
		<path class="st2" d="M81.3,71.3L81.3,71.3c-0.6,0-1.1-0.5-1.1-1.1v-2.9c0-0.6,0.5-1.1,1.1-1.1l0,0c0.6,0,1.1,0.5,1.1,1.1v2.9
			C82.5,70.8,81.9,71.3,81.3,71.3z"/>
		<path class="st2" d="M76.5,70.1L76.5,70.1c-0.6,0-1.1-0.5-1.1-1.1v-2.9c0-0.6,0.5-1.1,1.1-1.1l0,0c0.6,0,1.1,0.5,1.1,1.1V69
			C77.6,69.6,77.1,70.1,76.5,70.1z"/>
		<path class="st2" d="M77.6,78.5L77.6,78.5c-0.6,0-1.1-0.5-1.1-1.1v-2.9c0-0.6,0.5-1.1,1.1-1.1l0,0c0.6,0,1.1,0.5,1.1,1.1v2.9
			C78.7,78,78.2,78.5,77.6,78.5z"/>
		<path class="st2" d="M70.1,81.1L70.1,81.1c-0.6,0-1.1-0.5-1.1-1.1v-3c0-0.6,0.5-1.1,1.1-1.1l0,0c0.6,0,1.1,0.5,1.1,1.1v2.9
			C71.3,80.6,70.7,81.1,70.1,81.1z"/>
		<path class="st2" d="M33.7,66L33.7,66c-0.6,0-1.1-0.5-1.1-1.1v-2.9c0-0.6,0.5-1.1,1.1-1.1l0,0c0.6,0,1.1,0.5,1.1,1.1v2.8
			C34.8,65.4,34.3,66,33.7,66z"/>
		<path class="st2" d="M30.3,60.6L30.3,60.6c-0.6,0-1.1-0.5-1.1-1.1v-2.9c0-0.6,0.5-1.1,1.1-1.1l0,0c0.6,0,1.1,0.5,1.1,1.1v2.9
			C31.4,60.1,30.9,60.6,30.3,60.6z"/>
		<path class="st2" d="M31.8,72.3L31.8,72.3c-0.6,0-1.1-0.5-1.1-1.1v-2.9c0-0.6,0.5-1.1,1.1-1.1l0,0c0.6,0,1.1,0.5,1.1,1.1v2.9
			C32.9,71.8,32.4,72.3,31.8,72.3z"/>
	</g>
</g>
</svg>
