<svg xmlns="http://www.w3.org/2000/svg" viewBox="0 0 250.18 166.05"><defs><style>.cls-1,.cls-3{fill:#fff;}.cls-2{fill:#5e3f3c;}.cls-3,.cls-4{fill-rule:evenodd;}.cls-4{fill:#e34c3c;}</style></defs><title>sunny</title><g id="Layer_2" data-name="Layer 2"><g id="Capa_1" data-name="Capa 1"><circle class="cls-1" cx="130.51" cy="90.14" r="70.83"/><path class="cls-2" d="M67.17,4a3.49,3.49,0,1,1,6.9-1L95.82,152.73a3.49,3.49,0,0,1-6.9,1L67.17,4Z"/><path class="cls-3" d="M.21,89.43C-3.11,51.83,33.68,16.29,67.61,7c.11.76,1.75,1.15,3.65.87S74.62,6.79,74.51,6c35.17-.79,80.55,22.82,88.06,59.81C127.65,100.82,43.64,113,.21,89.43Z"/><path class="cls-4" d="M74.51,6c35.17-.79,80.55,22.82,88.06,59.81A93.82,93.82,0,0,1,142.11,81C134.43,40.06,105,14.84,74,6.91a1,1,0,0,0,.5-.87Z"/><path class="cls-4" d="M116.79,92a188.42,188.42,0,0,1-32.2,7.57L71.26,7.91a8.26,8.26,0,0,0,1.33-.3c19.76,18,38.87,48.67,44.2,84.42Z"/><path class="cls-4" d="M51.56,101.51a145.94,145.94,0,0,1-27.41-3.38c-4.28-41.43,16.73-74,44.2-90.4A4.68,4.68,0,0,0,69.91,8c-13.82,22.9-23.41,57.72-18.35,93.51Z"/><path class="cls-3" d="M189.88,166a24.72,24.72,0,0,1-15.53-44V29.76a15.57,15.57,0,0,1,15.53-15.53h0a15.57,15.57,0,0,1,15.53,15.53v92.33a24.72,24.72,0,0,1-15.53,44Z"/><path class="cls-4" d="M178.54,152.67A16.05,16.05,0,1,0,200,128.84l-3.26-2.63V34.69H183v91.51l-3.25,2.63a16.07,16.07,0,0,0-1.24,23.83Z"/><path class="cls-3" d="M178.94,141.81c0-.24,0-.47,0-.72a11,11,0,0,1,15.79-9.85h-.6a16.16,16.16,0,0,0-15.16,10.58Z"/><path class="cls-4" d="M211.78,34.69h38.41v5.82H211.78V34.69Zm0,69.63h38.41v5.82H211.78v-5.82Zm0-11.6h22.49v5.82H211.78V92.72Zm0-11.61h22.49v5.82H211.78V81.12Zm0-11.61h38.41v5.82H211.78V69.51Zm0-11.61h22.49v5.82H211.78V57.91Zm0-11.61h22.49v5.82H211.78V46.3Z"/></g></g></svg>