<svg xmlns="http://www.w3.org/2000/svg" viewBox="0 0 110.13 140.25"><defs><style>.cls-1{fill:#fff;stroke:#fff;stroke-linecap:round;stroke-linejoin:round;stroke-width:2px;}</style></defs><title>baby</title><g id="Layer_2" data-name="Layer 2"><g id="Capa_1" data-name="Capa 1"><path class="cls-1" d="M16.53,51.93a.89.89,0,0,1-.86-.57C12.9,44.19,8.33,37.8,1.28,31.25a.89.89,0,0,1-.22-1A36.62,36.62,0,0,1,19.33,10.72a.89.89,0,1,1,.77,1.6A34.79,34.79,0,0,0,3,30.37C9.67,36.7,14.16,42.93,17,49.86a18.56,18.56,0,0,0,4.78-3.26A.89.89,0,0,1,23,47.92a19.63,19.63,0,0,1-6.13,3.94A.89.89,0,0,1,16.53,51.93Z"/><path class="cls-1" d="M95,49.51a.9.9,0,0,1-.3,0,21.87,21.87,0,0,1-7-3.49.89.89,0,0,1,1.1-1.4,19,19,0,0,0,5.6,2.92c2.39-7.1,6.48-13.6,12.8-20.34a36.79,36.79,0,0,0-19-17.05.89.89,0,0,1,.67-1.65A38.5,38.5,0,0,1,109,26.92a.89.89,0,0,1-.15,1c-6.63,7-10.79,13.63-13.1,21a.89.89,0,0,1-.82.62Z"/><path class="cls-1" d="M20.4,109a.89.89,0,0,1-.9-.73c-2.24-12.14-3.62-32.18-2.05-44.69a101.52,101.52,0,0,1,2.9-12.08c5.17-18,4.8-31.25-1.1-39.34a.89.89,0,0,1,1.44-1c6.24,8.55,6.7,22.31,1.37,40.88A100,100,0,0,0,19.2,63.81c-1.55,12.31-.18,32.1,2,44.11a.89.89,0,0,1-.71,1ZM92,105.6h-.15a.89.89,0,0,1-.76-1c1.72-12.24,2.59-30.82.92-42.66a55.68,55.68,0,0,0-4.47-15.78C81.74,34,81.63,17.64,87.26,8.82a.89.89,0,0,1,1.5,1c-5.33,8.36-5.17,24,.37,35.61a57.44,57.44,0,0,1,4.62,16.3c1.69,12,.82,30.79-.92,43.16A.89.89,0,0,1,92,105.6Z"/><path class="cls-1" d="M57.66,132.74c-3.13.1-6.53-.86-10.72-3.25a.89.89,0,0,1-.36-.39C38.85,112.83,28.27,109.21,20.75,109a.89.89,0,0,1,0-1.78c8,.18,19.17,3.94,27.27,20.82,7.92,4.44,12.38,3.41,18.61-.47,5.05-14.92,13.45-22.82,25-23.46a.89.89,0,0,1,.1,1.78c-10.8.61-18.7,8.19-23.49,22.55a.9.9,0,0,1-.37.47C64.33,131.2,61.16,132.63,57.66,132.74Z"/><path class="cls-1" d="M41.6,135.86a.9.9,0,0,1-.74-.36l-.57-.76C34.24,126.66,28,118.3,21.38,113.46A.89.89,0,1,1,22.44,112c6.81,5,13.15,13.46,19.28,21.65l.2.27c1.14-.34,1.58-.67,2.74-2.21a.89.89,0,0,1,1.43,1.07c-1.54,2.06-2.26,2.47-4.27,3A.8.8,0,0,1,41.6,135.86Z"/><path class="cls-1" d="M73.89,134.85a.87.87,0,0,1-.23,0c-2.34-.54-3.74-.87-4.88-2.29a.89.89,0,0,1,1.39-1.12c.65.81,1.46,1.09,3.19,1.51,5.13-11.14,10.64-18.78,17.33-24a.89.89,0,1,1,1.1,1.4c-6.58,5.15-12,12.78-17.11,24A.89.89,0,0,1,73.89,134.85Z"/><path class="cls-1" d="M57.64,139.23a40.11,40.11,0,0,1-16.05-3.07.89.89,0,0,1,.64-1.66c7.8,3,17.61,5.23,31.22-1.12A.89.89,0,0,1,74.2,135,42,42,0,0,1,57.64,139.23Z"/><path class="cls-1" d="M57.74,136.2A24.71,24.71,0,0,1,45,133a.89.89,0,0,1-.3-.26c-12.38-17-16.83-18.34-23.07-19.09a.89.89,0,0,1-.69-.48,12.32,12.32,0,0,1-1.43-5.13.86.86,0,0,1,.88-.9.89.89,0,0,1,.9.88,10,10,0,0,0,1,3.93c6.45.82,11.28,2.55,23.7,19.59,7.22,3.83,14.61,3.8,22.56-.07,4.7-13.65,12-21.23,21.72-22.55.1-.59.17-1.17.24-1.76a24.57,24.57,0,0,1,.37-2.47.89.89,0,1,1,1.74.37,23,23,0,0,0-.34,2.3,23.84,23.84,0,0,1-.39,2.55.89.89,0,0,1-.78.69c-9.37,1-16.43,8.31-21,21.78a.9.9,0,0,1-.44.51A28.86,28.86,0,0,1,57.74,136.2Z"/><path class="cls-1" d="M48.61,133.48a1.84,1.84,0,1,1,1.78-1.91A1.85,1.85,0,0,1,48.61,133.48Zm-.06-1.9a.06.06,0,0,0-.06.06Z"/><path class="cls-1" d="M66.29,133a1.84,1.84,0,1,1,1.78-1.9A1.84,1.84,0,0,1,66.29,133Zm-.06-1.9a.07.07,0,0,0-.05.06Z"/><path class="cls-1" d="M57.87,135.39a1.84,1.84,0,1,1,1.8-1.9A1.84,1.84,0,0,1,57.87,135.39Zm-.06-1.9a.07.07,0,0,0-.05.06Z"/><path class="cls-1" d="M19.53,12.6a.89.89,0,0,1-.44-1.68c.91-.48,14.77-7.52,16.2-8.25A.93.93,0,0,1,36.52,3a.86.86,0,0,1-.36,1.18C34.67,5,20.82,12,19.91,12.5A.88.88,0,0,1,19.53,12.6Zm68.68-2.42a.89.89,0,0,1-.41-.08L72.14,2.71a.89.89,0,0,1,.76-1.61L88.56,8.48a.89.89,0,0,1-.35,1.7Z"/><path class="cls-1" d="M54.75,20.67c-8.23.26-15.16-3-19.52-9.27a.89.89,0,1,1,1.46-1c4,5.73,10.39,8.75,18,8.51S68.45,15.33,72,9.52a.89.89,0,0,1,1.52.93C69.65,16.79,63,20.42,54.75,20.67Z"/><path class="cls-1" d="M54.63,17.07c-9,.28-17.18-5.48-19.47-13.7a.89.89,0,1,1,1.72-.48c2.08,7.44,9.52,12.66,17.7,12.4S69.85,9.36,71.46,1.81a.89.89,0,0,1,1.74.37C71.43,10.52,63.62,16.79,54.63,17.07Z"/><path class="cls-1" d="M54,6.66A47.33,47.33,0,0,1,36.14,4.13a.89.89,0,1,1,.64-1.66A45.53,45.53,0,0,0,53.93,4.88c6.76-.21,13.17-1.59,17.6-3.79a.89.89,0,0,1,.79,1.6C67.67,5,61,6.44,54,6.66Z"/><path class="cls-1" d="M54.95,9.56l-.89,0A51,51,0,0,1,37,7.17a.89.89,0,1,1,.59-1.68A49.23,49.23,0,0,0,54,7.79,43.65,43.65,0,0,0,71,4.32a.89.89,0,0,1,.74,1.62A45,45,0,0,1,54.95,9.56Z"/><path class="cls-1" d="M24.92,27.22a.89.89,0,0,1-.47-1.67,21.34,21.34,0,0,0,4.3-3.21A21.4,21.4,0,0,0,35.08,3.61a.89.89,0,0,1,1.76-.28A23.18,23.18,0,0,1,30,23.62a23,23,0,0,1-4.66,3.48A.88.88,0,0,1,24.92,27.22Z"/><path class="cls-1" d="M24.34,23.6A.89.89,0,0,1,23.76,22c.57-.45,1.12-.93,1.65-1.44A21,21,0,0,0,32,5,.89.89,0,0,1,32.88,4h0a.89.89,0,0,1,.91.87,22.77,22.77,0,0,1-7.15,16.95c-.57.55-1.17,1.06-1.78,1.54A.89.89,0,0,1,24.34,23.6Z"/><path class="cls-1" d="M83.75,27.11a.89.89,0,0,1-.48-.12,20.81,20.81,0,0,1-4.4-3.45A27.43,27.43,0,0,1,71.51,2.38a.87.87,0,0,1,1-.82.89.89,0,0,1,.82,1,25.63,25.63,0,0,0,6.86,19.78,19,19,0,0,0,4,3.16.89.89,0,0,1-.42,1.66Z"/><path class="cls-1" d="M83.9,23.2a.88.88,0,0,1-.62-.23,18.74,18.74,0,0,1-1.57-1.57A27.86,27.86,0,0,1,74.88,3.85a.89.89,0,0,1,.85-.93h0a.89.89,0,0,1,.92.85A26.06,26.06,0,0,0,83,20.21a17.15,17.15,0,0,0,1.43,1.43.89.89,0,0,1-.57,1.55Z"/></g></g></svg>