<svg xmlns="http://www.w3.org/2000/svg" viewBox="0 0 97.7 99.04"><defs><style>.cls-1{fill:#fff;}</style></defs><title>bottom</title><g id="Layer_2" data-name="Layer 2"><g id="Capa_1" data-name="Capa 1"><path class="cls-1" d="M95.11,0H2.59A2.59,2.59,0,0,0,0,2.59V96.46A2.59,2.59,0,0,0,2.59,99H44.51a2.58,2.58,0,0,0,2.57-2.29l1.77-15.43,1.77,15.43A2.59,2.59,0,0,0,53.19,99H95.11a2.59,2.59,0,0,0,2.59-2.59V2.59A2.59,2.59,0,0,0,95.11,0ZM92.52,37.4A21.26,21.26,0,0,1,74,18.92H92.52ZM5.17,5.17H92.52v8.58H53.06L51.29,8.62s0-.09-.06-.13-.07-.17-.11-.25L51,8l-.15-.2-.17-.18-.19-.17-.2-.15-.22-.13-.24-.11L49.69,7,49.6,7l-.27-.06-.23,0h-.51l-.23,0L48.09,7,48,7l-.13.06-.25.12-.21.13-.21.15L47,7.64l-.17.19-.15.2a2.35,2.35,0,0,0-.13.21,2.6,2.6,0,0,0-.11.25s0,.09-.06.13l-1.77,5.13H5.17Zm0,13.75H23.65A21.27,21.27,0,0,1,5.17,37.4ZM55.49,93.87,51.42,58.3a2.59,2.59,0,0,0-5.14,0L42.2,93.87h-37V42.61A26.45,26.45,0,0,0,28.86,18.92h14l-2.57,7.45a2.59,2.59,0,1,0,4.89,1.69l3.15-9.14h1.05l3.15,9.14a2.59,2.59,0,0,0,4.89-1.69l-2.57-7.45h14A26.45,26.45,0,0,0,92.52,42.61V93.87Z"/></g></g></svg>