<svg xmlns="http://www.w3.org/2000/svg" viewBox="0 0 217.59 105.39"><defs><style>.cls-1{fill:none;stroke:#fff;stroke-miterlimit:10;stroke-width:4px;}</style></defs><title>shoes</title><g id="Layer_2" data-name="Layer 2"><g id="Capa_1" data-name="Capa 1"><path class="cls-1" d="M3.19,58.28h112c0-2.13-.08-4.51-.08-7.27V46.79h-5.52c-8.95,0-8.95-13.86,0-13.86h5.52V20.14c0-8-1.9-9.66-7.79-9.66l-6.16,0c-4.05,0-5.27,3-7.29,8.73-2.19,6.18-6.3,12.15-9.6,12.15l-3.42-1.55C87.53,27.11,90.9,22,93.17,15.38,94.5,11.5,93.86,7.7,91,6.13A54,54,0,0,0,80.4,2.2c-4.52-.92-5.73,1.23-9.79,8.5-4.2,7.51-5.28,10.14-10.08,13.9l-2.47,1,9.62,9.62c2.45,2.45-1.35,6.25-3.8,3.8L52.67,27.78l-2.62,1.14,9.68,9.69c2.45,2.45-1.35,6.25-3.8,3.8l-11-11.05c-1.15.57-2.31,1.13-3.43,1.75l7.78,7.78c2.45,2.45-1.35,6.25-3.8,3.8l-8.78-8.78c-1.44.91-2.84,1.84-4.16,2.83C12.72,40.22,5,46.88,3.19,58.28ZM86.68,37.46c9.74,0,9.74,15.1,0,15.1S76.94,37.46,86.68,37.46Z"/><path class="cls-1" d="M115.19,61.6c0,8.9,2.06,7.73-8.61,7.73H9.95c-4.72,0-9.29-1.87-7.59-7.73Z"/><path class="cls-1" d="M107.7,94.61l104.2-41c-.81-2-1.73-4.17-2.74-6.73L207.62,43l-5.13,2c-8.32,3.27-13.4-9.62-5.07-12.9l5.13-2-4.68-11.9c-2.94-7.46-5.31-8.29-10.79-6.13l-5.71,2.3c-3.77,1.48-3.8,4.73-3.59,10.79.23,6.56-1.42,13.61-4.49,14.82l-3.74-.19c5.24-5,6.51-11,6.2-18-.18-4.1-2.17-7.4-5.37-7.83a54,54,0,0,0-11.34.24c-4.54.8-4.88,3.25-6,11.5-1.16,8.53-1.2,11.37-4.29,16.63l-1.95,1.8,12.48,5.43c3.18,1.38,1,6.31-2.14,4.92l-14.54-6.33c-.67.66-1.34,1.33-2,2l12.55,5.47c3.18,1.38,1,6.31-2.14,4.92l-14.33-6.24c-.86,1-1.73,1.9-2.56,2.88l10.09,4.39c3.17,1.39,1,6.31-2.14,4.93l-11.38-5c-1,1.37-2,2.75-2.83,4.16C109.95,74.31,105.17,83.35,107.7,94.61Zm70.07-49.94c9.06-3.56,14.59,10.49,5.53,14.06S168.71,48.23,177.77,44.67Z"/><path class="cls-1" d="M213.14,56.7C216.38,65,217.89,63.13,208,67L118,102.41c-4.39,1.73-9.33,1.66-9.89-4.42Z"/></g></g></svg>