<svg xmlns="http://www.w3.org/2000/svg" viewBox="0 0 132.21 133.04"><defs><style>.cls-1{fill:#fff;}</style></defs><title>top</title><g id="Layer_2" data-name="Layer 2"><g id="Capa_1" data-name="Capa 1"><path class="cls-1" d="M125.37,16.64c-3-5.72-12.91-11.33-14.79-12.36A18,18,0,0,0,99,0H33.25A18,18,0,0,0,21.62,4.28c-1.88,1-11.75,6.64-14.79,12.36C2.35,25.1.23,54.06,0,57.33a2.57,2.57,0,0,0,2.56,2.75H15.26v70.39A2.57,2.57,0,0,0,17.83,133h96.56a2.57,2.57,0,0,0,2.57-2.57V60.08h12.69a2.57,2.57,0,0,0,2.56-2.75C132,54.06,129.86,25.1,125.37,16.64Zm-36-11.5a23.4,23.4,0,0,1-46.51,0ZM117,54.94V34.62a2.57,2.57,0,1,0-5.14,0V57.28c0,.08,0,.15,0,.23V127.9H20.4V34.62a2.57,2.57,0,1,0-5.14,0V54.94H5.34c.82-10.08,3-30.13,6-35.89,2-3.82,9.66-8.58,12.69-10.25a2.56,2.56,0,0,0,.69-.44,12.82,12.82,0,0,1,8.49-3.23h4.43a28.53,28.53,0,0,0,56.84,0H99a12.83,12.83,0,0,1,8.49,3.23,2.56,2.56,0,0,0,.68.43c3,1.65,10.67,6.42,12.7,10.25,3.05,5.76,5.21,25.8,6,35.89Z"/><path class="cls-1" d="M103.67,39.82H92.07a2.57,2.57,0,0,0,0,5.14h11.6a2.57,2.57,0,0,0,0-5.14Z"/></g></g></svg>