<?xml version="1.0" encoding="utf-8"?>
<!-- Svg Vector Icons : http://www.onlinewebfonts.com/icon -->
<!DOCTYPE svg PUBLIC "-//W3C//DTD SVG 1.1//EN" "http://www.w3.org/Graphics/SVG/1.1/DTD/svg11.dtd">
<svg version="1.1" xmlns="http://www.w3.org/2000/svg" xmlns:xlink="http://www.w3.org/1999/xlink" x="0px" y="0px" viewBox="0 0 1000 1000" enable-background="new 0 0 1000 1000" xml:space="preserve">
<metadata> Svg Vector Icons : http://www.onlinewebfonts.com/icon </metadata>
<g><g><path d="M928.4,147.5H690c-11.5,0-20.8,9.3-20.8,20.8c0,63.2-51.5,114.7-114.7,114.7c-63.2,0-114.7-51.5-114.7-114.7c0-11.5-9.3-20.8-20.8-20.8H183.9c-33.9,0-61.6,27.6-61.6,61.6v182.3l-99.9,99.9c-8,8-12.4,18.6-12.4,29.8c0,11.3,4.4,21.9,12.4,29.8l100.4,100.4c8,8,18.6,12.4,29.8,12.4s21.9-4.4,29.8-12.4l65.7-65.7v207.4c0,32.7,26.6,59.3,59.3,59.3h494.1c32.7,0,59.3-26.6,59.3-59.3V431.4h67.6c33.9,0,61.6-27.6,61.6-61.6V209.1C990,175.1,962.4,147.5,928.4,147.5z M427.2,259.1l-15.6,8.7c-3.7-5.5-10-9.1-17.1-9.2l-14.3-0.2l14.5-69.2h4.8C402.9,215,412.7,238.9,427.2,259.1z M164,209.1c0-11,8.9-19.9,19.9-19.9h168.2L337.7,258l-72.4-0.8c-5.6-0.1-11,2.1-15,6.1L164,349.7V209.1z M153,621.9c-0.1,0.1-0.6,0.1-0.7,0L51.8,521.5c-0.1-0.1-0.2-0.1-0.2-0.4c0-0.2,0.1-0.3,0.2-0.4L273.7,299l80.2,0.9L326,315.3c-10.1,5.6-13.7,18.3-8.1,28.3c3.8,6.9,10.9,10.7,18.2,10.7c3.4,0,6.9-0.8,10.1-2.6l27.8-15.5l0.7,63.8L153,621.9z M948.3,369.8c0,11-8.9,19.9-19.9,19.9H840c-11.5,0-20.8,9.3-20.8,20.8v382.6c0,9.7-7.9,17.6-17.6,17.6H307.4c-9.7,0-17.6-7.9-17.6-17.6V544.1l120.7-120.7c4-4,6.2-9.4,6.1-15l-1-95.2l41.2-22.9c26.8,21.5,60.7,34.3,97.7,34.3c79.2,0,144.8-59.1,155-135.5h219c11,0,19.9,8.9,19.9,19.9L948.3,369.8L948.3,369.8z"/><path d="M626.3,495.6H486c-11.5,0-20.8,9.3-20.8,20.8s9.3,20.8,20.8,20.8h140.2c11.5,0,20.8-9.3,20.8-20.8S637.8,495.6,626.3,495.6z"/></g><g></g><g></g><g></g><g></g><g></g><g></g><g></g><g></g><g></g><g></g><g></g><g></g><g></g><g></g><g></g></g>
</svg>
