<?xml version="1.0" encoding="utf-8"?>
<!-- Generator: Adobe Illustrator 21.1.0, SVG Export Plug-In . SVG Version: 6.00 Build 0)  -->
<svg version="1.1" id="Layer_1" xmlns="http://www.w3.org/2000/svg" xmlns:xlink="http://www.w3.org/1999/xlink" x="0px" y="0px"
	 viewBox="0 0 108 108" style="enable-background:new 0 0 108 108;" xml:space="preserve">
<style type="text/css">
	.st0{display:none;}
	.st1{fill:#FFFFFF;}
	.st2{fill:none;stroke:#FFFFFF;stroke-width:5;stroke-miterlimit:10;}
	.st3{fill:none;stroke:#FFFFFF;stroke-width:5;stroke-linecap:round;stroke-miterlimit:10;}
</style>
<rect y="0.4" class="st0" width="108" height="108"/>
<g id="termometer">
	<path class="st1" d="M93.1,73.9V21.8c0-4.3-3.8-7.8-8.1-7.8s-8,3.5-8,7.8v52.1c-6,2.9-9.9,9-9.9,16.1c0,9.9,8,17.9,17.9,17.9
		s17.9-8,17.9-17.9C102.9,83,99.1,76.8,93.1,73.9z M85,104.6c-7.8,0-14.1-6.3-14.1-14.1c0-5.8,3.5-10.8,8.5-12.9V22.9
		c0-3.1,2.3-5.5,5.2-5.5h0.8c2.9,0,5.2,2.5,5.2,5.5v54.8c5,2.2,8.5,7.1,8.5,12.9C99.1,98.3,92.8,104.6,85,104.6z"/>
	<circle class="st1" cx="85" cy="90.6" r="11.4"/>
	<path class="st1" d="M89.5,77.2v-6.4h-9v6.4c1.7-0.5,2.9-0.8,4.5-0.8S88,76.7,89.5,77.2z"/>
	<rect x="80.5" y="48.8" class="st1" width="9" height="23.7"/>
</g>
<g id="Sunny">
	<circle class="st2" cx="38.6" cy="41.5" r="21.3"/>
	<line class="st3" x1="38.6" y1="11.9" x2="38.6" y2="5.9"/>
	<line class="st3" x1="38.6" y1="76.8" x2="38.6" y2="70.8"/>
	<line class="st3" x1="16.7" y1="19.6" x2="12.5" y2="15.4"/>
	<line class="st3" x1="63.6" y1="66.5" x2="59.4" y2="62.3"/>
	<line class="st3" x1="11.4" y1="41.5" x2="5.5" y2="41.5"/>
	<line class="st3" x1="71.7" y1="41.5" x2="65.7" y2="41.5"/>
	<line class="st3" x1="17.8" y1="62.3" x2="13.5" y2="66.5"/>
	<line class="st3" x1="64.6" y1="15.4" x2="60.4" y2="19.6"/>
</g>
<g id="Coludy">
	<path class="st1" d="M50.4,62.8H14.5c-6.6,0-12,5.4-12,12l0,0c0,6.6,5.4,12,12,12h35.8c6.6,0,12-5.4,12-12l0,0
		C62.4,68.2,57,62.8,50.4,62.8z"/>
	<path class="st1" d="M15.9,86.8H32c6.6,0,12-5.4,12-12v-4.7c0-6.6-5.4-12-12-12H15.9C8,58.1,1.5,64.5,1.5,72.4l0,0
		C1.5,80.3,8,86.8,15.9,86.8z"/>
	<path class="st1" d="M36.9,83.9l-9.6,2.4c-6.1,1.5-12.4-2.2-13.9-8.4l-3.5-14C8,56.1,12.8,48.1,20.6,46.2l3.5-0.9
		c7.8-1.9,15.8,2.9,17.7,10.7l3.5,14C46.8,76.1,43,82.3,36.9,83.9z"/>
	<circle class="st1" cx="42.1" cy="63.8" r="13.2"/>
</g>
</svg>
