<svg xmlns="http://www.w3.org/2000/svg" viewBox="0 0 68.27 61.77"><defs><style>.cls-1{fill:#73626e;}.cls-2{fill:none;stroke:#fff;stroke-linecap:round;stroke-linejoin:round;stroke-width:0.5px;stroke-dasharray:3;}.cls-3{fill:#fff;}</style></defs><title>check</title><g id="Layer_2" data-name="Layer 2"><g id="Capa_1" data-name="Capa 1"><circle class="cls-1" cx="28.7" cy="33.08" r="26"/><circle class="cls-2" cx="28.7" cy="33.08" r="28.45"/><path class="cls-3" d="M67.14,9.32A5.86,5.86,0,0,0,58.3,1.68a5.77,5.77,0,0,0-.67.81L30.14,30,18.45,18.3a5.79,5.79,0,0,0-8.18,8.18L26,42.26a5.79,5.79,0,0,0,8.18,0h0l31.9-31.9a5.77,5.77,0,0,0,.45-.4,5.7,5.7,0,0,0,.4-.45l.17-.17Z"/><path class="cls-1" d="M33.75,37.59a.85.85,0,0,1-.6-1.45l24-24a.85.85,0,1,1,1.2,1.2l-24,24A.84.84,0,0,1,33.75,37.59Z"/></g></g></svg>